<?xml version="1.0" encoding="utf-8"?>
<!-- Generator: Adobe Illustrator 26.2.1, SVG Export Plug-In . SVG Version: 6.00 Build 0)  -->
<svg version="1.1" id="Layer_1" xmlns="http://www.w3.org/2000/svg" xmlns:xlink="http://www.w3.org/1999/xlink" x="0px" y="0px"
	 viewBox="0 0 1080 1080" style="enable-background:new 0 0 1080 1080;" fill='#fff6ed' xml:space="preserve">
<path d="M579.8,315.8h0.4c6.1,0,11,4.9,11,11v691.3c0,6.1-4.9,11-11,11h-0.4c-6.1,0-11-4.9-11-11V326.8
	C568.8,320.7,573.7,315.8,579.8,315.8z"/>
<path d="M614.8,378.4h0.4c6.1,0,11,4.9,11,11v680.1c0,6.1-4.9,11-11,11h-0.4c-6.1,0-11-4.9-11-11V389.4
	C603.8,383.3,608.7,378.4,614.8,378.4z"/>
<path d="M649.8,436.5h0.4c6.1,0,11,4.9,11,11v570.5c0,6.1-4.9,11-11,11h-0.4c-6.1,0-11-4.9-11-11V447.5
	C638.8,441.4,643.7,436.5,649.8,436.5z"/>
<path d="M684.8,365h0.4c6.1,0,11,4.9,11,11v541.5c0,6.1-4.9,11-11,11h-0.4c-6.1,0-11-4.9-11-11V376C673.8,369.9,678.7,365,684.8,365
	z"/>
<path d="M719.8,315.8h0.4c6.1,0,11,4.9,11,11v519.1c0,6.1-4.9,11-11,11h-0.4c-6.1,0-11-4.9-11-11V326.8
	C708.8,320.7,713.7,315.8,719.8,315.8z"/>
<path d="M754.8,253.2h0.4c6.1,0,11,4.9,11,11v521.3c0,6.1-4.9,11-11,11h-0.4c-6.1,0-11-4.9-11-11V264.2
	C743.8,258.1,748.7,253.2,754.8,253.2z"/>
<path d="M789.8,335.9h0.4c6.1,0,11,4.9,11,11v387.2c0,6.1-4.9,11-11,11h-0.4c-6.1,0-11-4.9-11-11V346.9
	C778.8,340.8,783.7,335.9,789.8,335.9z"/>
<path d="M824.8,396.3h0.4c6.1,0,11,4.9,11,11v288.8c0,6.1-4.9,11-11,11h-0.4c-6.1,0-11-4.9-11-11V407.3
	C813.8,401.2,818.7,396.3,824.8,396.3z"/>
<path d="M859.8,436.5h0.4c6.1,0,11,4.9,11,11v206.1c0,6.1-4.9,11-11,11h-0.4c-6.1,0-11-4.9-11-11V447.5
	C848.8,441.4,853.7,436.5,859.8,436.5z"/>
<path d="M895,479L895,479c6.2,0,11.2,5,11.2,11.2v100.6c0,6.2-5,11.2-11.2,11.2l0,0c-6.2,0-11.2-5-11.2-11.2V490.2
	C883.8,484,888.8,479,895,479z"/>
<path d="M229.8,335.9h0.4c6.1,0,11,4.9,11,11v387.2c0,6.1-4.9,11-11,11h-0.4c-6.1,0-11-4.9-11-11V346.9
	C218.8,340.8,223.7,335.9,229.8,335.9z"/>
<path d="M264.8,284.5h0.4c6.1,0,11,4.9,11,11v519.1c0,6.1-4.9,11-11,11h-0.4c-6.1,0-11-4.9-11-11V295.5
	C253.8,289.4,258.7,284.5,264.8,284.5z"/>
<path d="M299.8,224.1h0.4c6.1,0,11,4.9,11,11V752c0,6.1-4.9,11-11,11h-0.4c-6.1,0-11-4.9-11-11V235.1
	C288.8,229,293.7,224.1,299.8,224.1z"/>
<path d="M334.8,143.6h0.4c6.1,0,11,4.9,11,11V705c0,6.1-4.9,11-11,11h-0.4c-6.1,0-11-4.9-11-11V154.6
	C323.8,148.5,328.7,143.6,334.8,143.6z"/>
<path d="M124.8,479h0.4c6.1,0,11,4.9,11,11v101c0,6.1-4.9,11-11,11h-0.4c-6.1,0-11-4.9-11-11V490C113.8,483.9,118.7,479,124.8,479z"
	/>
<path d="M159.8,418.6h0.4c6.1,0,11,4.9,11,11v201.6c0,6.1-4.9,11-11,11h-0.4c-6.1,0-11-4.9-11-11V429.6
	C148.8,423.6,153.7,418.6,159.8,418.6z"/>
<path d="M194.8,373.9h0.4c6.1,0,11,4.9,11,11v286.6c0,6.1-4.9,11-11,11h-0.4c-6.1,0-11-4.9-11-11V384.9
	C183.8,378.8,188.7,373.9,194.8,373.9z"/>
<path d="M369.8,49.7h0.4c6.1,0,11,4.9,11,11v570.5c0,6.1-4.9,11-11,11h-0.4c-6.1,0-11-4.9-11-11V60.7
	C358.8,54.6,363.7,49.7,369.8,49.7z"/>
<path d="M404.8,0.5h0.4c6.1,0,11,4.9,11,11v673.4c0,6.1-4.9,11-11,11h-0.4c-6.1,0-11-4.9-11-11V11.5C393.8,5.4,398.7,0.5,404.8,0.5z
	"/>
<path d="M439.8,49.7h0.4c6.1,0,11,4.9,11,11V752c0,6.1-4.9,11-11,11h-0.4c-6.1,0-11-4.9-11-11V60.7
	C428.8,54.6,433.7,49.7,439.8,49.7z"/>
<path d="M474.8,132.4h0.4c6.1,0,11,4.9,11,11v671.2c0,6.1-4.9,11-11,11h-0.4c-6.1,0-11-4.9-11-11V143.4
	C463.8,137.4,468.7,132.4,474.8,132.4z"/>
<path d="M509.8,192.8h0.4c6.1,0,11,4.9,11,11V875c0,6.1-4.9,11-11,11h-0.4c-6.1,0-11-4.9-11-11V203.8
	C498.8,197.7,503.7,192.8,509.8,192.8z"/>
<path d="M544.8,255.4h0.4c6.1,0,11,4.9,11,11v673.4c0,6.1-4.9,11-11,11h-0.4c-6.1,0-11-4.9-11-11V266.4
	C533.8,260.3,538.7,255.4,544.8,255.4z"/>
</svg>
